<!-- Generator: Adobe Illustrator 18.1.1, SVG Export Plug-In  -->
<svg version="1.1"
   xmlns="http://www.w3.org/2000/svg" xmlns:xlink="http://www.w3.org/1999/xlink" xmlns:a="http://ns.adobe.com/AdobeSVGViewerExtensions/3.0/"
   x="0px" y="0px" width="54.3px" height="20.5px" viewBox="0 0 54.3 20.5" enable-background="new 0 0 54.3 20.5"
   xml:space="preserve">
<defs>
</defs>
<path fill="#ffffff" d="M54.3,0C54-0.2,33,18.4,33,18.4c-4.9,2.8-6.7,2.8-11.7,0c0,0-21-18.6-21.3-18.4L54.3,0z"/>
<g>
  <path fill="#009688" d="M25.3,2c-1.6,0.5-2.4,1.6-2.4,3.1c1,0.3,2,1.1,2,2.4v0.3c0,1.3-0.9,2.3-2.4,2.3c-1.5,0-2.5-1.2-2.5-3.1V6.7
    c0-2.4,0.6-4,1.7-5.1c0.9-0.9,2.3-1.5,3.3-1.5c0.7,0,1.1,0.4,1.1,1C26.2,1.6,25.8,1.9,25.3,2z M33.4,2C31.8,2.5,31,3.6,31,5.1
    c1,0.3,2,1.1,2,2.4v0.3c0,1.3-0.9,2.3-2.4,2.3c-1.5,0-2.5-1.2-2.5-3.1V6.7c0-2.4,0.6-4,1.7-5.1c0.9-0.9,2.3-1.5,3.3-1.5
    c0.7,0,1.1,0.4,1.1,1C34.3,1.6,33.9,1.9,33.4,2z"/>
</g>
</svg>
